<?xml version="1.0" encoding="UTF-8"?>
<svg id="Layer_2" data-name="Layer 2" xmlns="http://www.w3.org/2000/svg" viewBox="0 0 64.72 89.06">
  <defs>
    <style>
      .cls-1 {
        fill: #fff;
        stroke-width: 0px;
      }
    </style>
  </defs>
  <g id="Layer_1-2" data-name="Layer 1">
    <path class="cls-1" d="M64.72,32.65c.01,1.46-.14,2.88-.43,4.23-.07.28-.14.56-.21.84-.19.73-.42,1.45-.7,2.14-1.3,3.24-3.48,5.97-6.24,7.91-1.48,1.05-3.13,1.87-4.91,2.42-.13.04-.26.08-.39.11-1.53.44-3.15.69-4.83.71-7.45.09-13.64-3.96-16.56-10.24-1.1-2.38-1.74-5.08-1.8-7.99-.05-2.74-.02-5.49,0-8.23.01-2,.01-3.99-.03-5.99v-4.15c0-.75.61-1.36,1.36-1.36h4.56c.76,0,1.37.61,1.37,1.36v5.28c.23.89.72,1.5,1.45,1.88h5.87c.76,0,1.37.61,1.37,1.36v3.18c0,.75-.61,1.36-1.37,1.36h-5.62c-1.47.63-1.87,2.07-1.85,3.86.01.78.1,1.63.22,2.5.82,5.93,5.65,10.15,11.24,9.86,4.92-.27,8.89-3.68,9.92-8.49.19-.92.28-1.9.25-2.91-.04-1.05-.12-2.08-.25-3.07-.01-.07-.02-.13-.03-.2-1.16-8.53-5.81-14.99-13.99-18.99-8.99-4.4-20.17-2.82-27.46,3.91-7.48,6.92-10.12,15.42-7.2,25.33,1.9,6.45,5.32,12.17,9.1,17.64,3.88,5.6,8.15,10.92,11.98,16.54,2.22,3.27,3.67,2.82,5.64-.14,1.05-1.57,2.25-3.05,3.43-4.53,1.14-1.43,2.27-2.86,3.22-4.4l3.92-5.35.02-.02,1.94-2.64c.48-.01.96-.04,1.45-.09,4.66-.46,8.74-2.44,11.59-5.29l.07.05-15.24,20.77-1.04,1.37c-3.97,5.2-8.12,10.39-12.2,15.88-11.07-14.71-23.17-27.91-29.86-44.71C-3.36,29.65,1.32,14.22,14.24,5.77c10.78-7.05,22.23-7.71,33.55-1.6,11.14,6.02,16.85,15.76,16.93,28.48Z"/>
  </g>
</svg>