<?xml version="1.0" encoding="UTF-8"?>
<svg id="Layer_2" data-name="Layer 2" xmlns="http://www.w3.org/2000/svg" viewBox="0 0 282.47 89.06">
  <defs>
    <style>
      .cls-1 {
        fill: #fff;
        stroke-width: 0px;
      }
    </style>
  </defs>
  <g id="Layer_1-2" data-name="Layer 1">
    <g>
      <g>
        <path class="cls-1" d="M75,24.53v-6.72h44.15v6.72h-44.15ZM93.36,72.04V19.37h7.42v52.67h-7.42Z"/>
        <path class="cls-1" d="M132.2,72.82c-3.44,0-6.52-.85-9.26-2.54-2.73-1.69-4.9-4-6.49-6.92-1.59-2.92-2.38-6.2-2.38-9.85s.79-6.93,2.38-9.85c1.59-2.92,3.75-5.24,6.49-6.96,2.74-1.72,5.82-2.58,9.26-2.58,2.81,0,5.33.59,7.54,1.76,2.21,1.17,4,2.79,5.35,4.85,1.35,2.06,2.11,4.44,2.27,7.15v11.17c-.16,2.66-.9,5.03-2.23,7.11-1.33,2.08-3.11,3.71-5.35,4.88-2.24,1.17-4.77,1.76-7.58,1.76ZM133.38,66.18c3.49,0,6.3-1.18,8.44-3.56,2.14-2.37,3.2-5.4,3.2-9.1,0-2.5-.5-4.71-1.48-6.64-.99-1.93-2.36-3.42-4.1-4.49-1.75-1.07-3.79-1.6-6.13-1.6s-4.42.55-6.21,1.64c-1.8,1.09-3.2,2.59-4.22,4.49-1.02,1.9-1.52,4.08-1.52,6.53s.51,4.7,1.52,6.6c1.02,1.9,2.44,3.4,4.26,4.49,1.82,1.09,3.91,1.64,6.25,1.64ZM144.55,72.04v-10l1.33-9.06-1.33-8.99v-9.06h7.11v37.12h-7.11Z"/>
        <path class="cls-1" d="M158.85,68.21l22.12-29.46h8.28l-22.04,29.46h-8.36ZM158.85,72.04v-3.83l6.33-2.58h23.6v6.41h-29.93ZM160.26,41.33v-6.41h28.99v3.83l-6.49,2.58h-22.51Z"/>
        <path class="cls-1" d="M196.83,72.04V16.24h7.03v55.8h-7.03Z"/>
        <path class="cls-1" d="M231.37,72.82c-3.75,0-7.1-.85-10.04-2.54-2.94-1.69-5.27-4-6.99-6.92-1.72-2.92-2.58-6.22-2.58-9.92s.85-6.93,2.54-9.85c1.69-2.92,3.99-5.22,6.88-6.92,2.89-1.69,6.13-2.54,9.73-2.54,3.39,0,6.41.78,9.06,2.34,2.66,1.56,4.73,3.73,6.21,6.49,1.49,2.76,2.23,5.91,2.23,9.46,0,.52-.03,1.08-.08,1.68-.05.6-.16,1.26-.31,1.99h-31.34v-5.86h27.59l-2.58,2.27c0-2.5-.44-4.62-1.33-6.37-.89-1.75-2.14-3.1-3.75-4.06-1.62-.96-3.57-1.45-5.86-1.45s-4.51.52-6.33,1.56c-1.82,1.04-3.23,2.5-4.22,4.38-.99,1.88-1.48,4.09-1.48,6.64s.52,4.88,1.56,6.84c1.04,1.95,2.53,3.47,4.45,4.53,1.93,1.07,4.14,1.6,6.64,1.6,2.08,0,4-.36,5.74-1.09,1.74-.73,3.24-1.82,4.49-3.28l4.53,4.61c-1.82,2.08-4.01,3.67-6.56,4.77-2.55,1.09-5.29,1.64-8.21,1.64Z"/>
        <path class="cls-1" d="M256.06,72.04v-37.12h7.03v37.12h-7.03ZM263.09,50.94l-2.66-1.25c0-4.74,1.09-8.52,3.28-11.33,2.19-2.81,5.34-4.22,9.46-4.22,1.88,0,3.57.33,5.08.98,1.51.65,2.92,1.73,4.22,3.24l-4.61,4.77c-.78-.83-1.64-1.43-2.58-1.8-.94-.36-2.03-.55-3.28-.55-2.61,0-4.74.83-6.41,2.5-1.67,1.67-2.5,4.22-2.5,7.66Z"/>
      </g>
      <path class="cls-1" d="M64.72,32.65c.01,1.46-.14,2.88-.43,4.23-.07.28-.14.56-.21.84-.19.73-.42,1.45-.7,2.14-1.3,3.24-3.48,5.97-6.24,7.91-1.48,1.05-3.13,1.87-4.91,2.42-.13.04-.26.08-.39.11-1.53.44-3.15.69-4.83.71-7.45.09-13.64-3.96-16.56-10.24-1.1-2.38-1.74-5.08-1.8-7.99-.05-2.74-.02-5.49,0-8.23.01-2,.01-3.99-.03-5.99v-4.15c0-.75.61-1.36,1.36-1.36h4.56c.76,0,1.37.61,1.37,1.36v5.28c.23.89.72,1.5,1.45,1.88h5.87c.76,0,1.37.61,1.37,1.36v3.18c0,.75-.61,1.36-1.37,1.36h-5.62c-1.47.63-1.87,2.07-1.85,3.86.01.78.1,1.63.22,2.5.82,5.93,5.65,10.15,11.24,9.86,4.92-.27,8.89-3.68,9.92-8.49.19-.92.28-1.9.25-2.91-.04-1.05-.12-2.08-.25-3.07-.01-.07-.02-.13-.03-.2-1.16-8.53-5.81-14.99-13.99-18.99-8.99-4.4-20.17-2.82-27.46,3.91-7.48,6.92-10.12,15.42-7.2,25.33,1.9,6.45,5.32,12.17,9.1,17.64,3.88,5.6,8.15,10.92,11.98,16.54,2.22,3.27,3.67,2.82,5.64-.14,1.05-1.57,2.25-3.05,3.43-4.53,1.14-1.43,2.27-2.86,3.22-4.4l3.92-5.35.02-.02,1.94-2.64c.48-.01.96-.04,1.45-.09,4.66-.46,8.74-2.44,11.59-5.29l.07.05-15.24,20.77-1.04,1.37c-3.97,5.2-8.12,10.39-12.2,15.88-11.07-14.71-23.17-27.91-29.86-44.71C-3.36,29.65,1.32,14.22,14.24,5.77c10.78-7.05,22.23-7.71,33.55-1.6,11.14,6.02,16.85,15.76,16.93,28.48Z"/>
    </g>
  </g>
</svg>